<svg viewBox="0 0 16 16" fill="none" xmlns="http://www.w3.org/2000/svg"><mask id="a" fill="#fff"><path d="M15.75 1.521h-3.01a.25.25 0 00-.25.25v3.127H9.63a.25.25 0 00-.25.25v2.576H6.462a.25.25 0 00-.25.25v2.98H3.415a.25.25 0 00-.25.25v2.774H.25a.25.25 0 100 .5h3.165a.25.25 0 00.25-.25v-2.774h2.797a.25.25 0 00.25-.25v-2.98h2.92a.25.25 0 00.25-.25V5.398h2.857a.25.25 0 00.25-.25V2.021h2.761a.25.25 0 100-.5z"/></mask><path d="M15.75 1.521h-3.01a.25.25 0 00-.25.25v3.127H9.63a.25.25 0 00-.25.25v2.576H6.462a.25.25 0 00-.25.25v2.98H3.415a.25.25 0 00-.25.25v2.774H.25a.25.25 0 100 .5h3.165a.25.25 0 00.25-.25v-2.774h2.797a.25.25 0 00.25-.25v-2.98h2.92a.25.25 0 00.25-.25V5.398h2.857a.25.25 0 00.25-.25V2.021h2.761a.25.25 0 100-.5z" fill="#F43838"/><path d="M12.49 4.898v1h1v-1h-1zM9.38 7.724v1h1v-1h-1zm-3.169 3.23v1h1v-1h-1zm-3.047 3.024v1h1v-1h-1zm.5-2.524v-1h-1v1h1zm3.047-3.23v-1h-1v1h1zm3.17-2.826v-1h-1v1h1zm3.107-3.377v-1h-1v1h1zm2.761-1.5h-3.01v2h3.01v-2zm-3.01 0c-.691 0-1.25.56-1.25 1.25h2a.75.75 0 01-.75.75v-2zm-1.25 1.25v3.127h2V1.771h-2zm1 2.127H9.63v2h2.858v-2zm-2.859 0c-.69 0-1.25.56-1.25 1.25h2a.75.75 0 01-.75.75v-2zm-1.25 1.25v2.576h2V5.148h-2zm1 1.576H6.462v2h2.92v-2zm-2.919 0c-.69 0-1.25.56-1.25 1.25h2a.75.75 0 01-.75.75v-2zm-1.25 1.25v2.98h2v-2.98h-2zm1 1.98H3.415v2h2.797v-2zm-2.797 0c-.69 0-1.25.56-1.25 1.25h2a.75.75 0 01-.75.75v-2zm-1.25 1.25v2.774h2v-2.774h-2zm1 1.774H.25v2h2.915v-2zm-2.915 0c-.69 0-1.25.56-1.25 1.25h2a.75.75 0 01-.75.75v-2zM-1 14.229c0 .69.56 1.25 1.25 1.25v-2a.75.75 0 01.75.75h-2zm1.25 1.25h3.165v-2H.25v2zm3.165 0c.69 0 1.25-.559 1.25-1.25h-2a.75.75 0 01.75-.75v2zm1.25-1.25v-2.774h-2v2.774h2zm-1-1.774h2.797v-2H3.665v2zm2.797 0c.69 0 1.25-.56 1.25-1.25h-2a.75.75 0 01.75-.75v2zm1.25-1.25v-2.98h-2v2.98h2zm-1-1.98h2.92v-2h-2.92v2zm2.92 0c.69 0 1.25-.56 1.25-1.25h-2a.75.75 0 01.75-.75v2zm1.25-1.25V5.398h-2v2.576h2zm-1-1.576h2.857v-2H9.881v2zm2.857 0c.69 0 1.25-.559 1.25-1.25h-2a.75.75 0 01.75-.75v2zm1.25-1.25V2.021h-2v3.127h2zm-1-2.127h2.761v-2h-2.76v2zm2.761 0c.69 0 1.25-.559 1.25-1.25h-2a.75.75 0 01.75-.75v2zM17 1.771c0-.69-.56-1.25-1.25-1.25v2a.75.75 0 01-.75-.75h2z" fill="#F43838" mask="url(#a)"/><mask id="b" fill="#fff"><path d="M2.085 6.12h2.82a.25.25 0 100-.5h-2.24l3.596-3.574a.25.25 0 10-.353-.354L2.335 5.244V3.087a.25.25 0 10-.5 0v2.782c0 .138.111.25.25.25z"/></mask><path d="M2.085 6.12h2.82a.25.25 0 100-.5h-2.24l3.596-3.574a.25.25 0 10-.353-.354L2.335 5.244V3.087a.25.25 0 10-.5 0v2.782c0 .138.111.25.25.25z" fill="#F43838"/><path d="M2.666 5.62l-.705-.71L.24 6.62h2.425v-1zM6.26 2.045l.705.71-.705-.71zm0-.353l-.708.705.709-.705zm-.353-.001l.705.71.002-.002-.707-.708zM2.335 5.244h-1v2.403l1.704-1.694-.704-.71zm-.25 1.875h2.82v-2h-2.82v2zm2.82 0c.69 0 1.25-.56 1.25-1.25h-2a.75.75 0 01.75-.75v2zm1.25-1.25c0-.69-.56-1.25-1.25-1.25v2a.75.75 0 01-.75-.75h2zm-1.25-1.25h-2.24v2h2.24v-2zM3.371 6.33l3.595-3.573-1.41-1.419L1.961 4.91l1.41 1.419zm3.595-3.574A1.25 1.25 0 006.971.988l-1.418 1.41a.75.75 0 01.002-1.06l1.411 1.417zM6.971.988A1.25 1.25 0 005.202.984L6.615 2.4a.75.75 0 01-1.062-.002L6.97.988zM5.203.983L1.63 4.534l1.41 1.419L6.612 2.4 5.203.983zm-1.868 4.26V3.088h-2v2.157h2zm0-2.156c0-.69-.56-1.25-1.25-1.25v2a.75.75 0 01-.75-.75h2zm-1.25-1.25c-.69 0-1.25.56-1.25 1.25h2a.75.75 0 01-.75.75v-2zm-1.25 1.25v2.782h2V3.087h-2zm0 2.782c0 .69.56 1.25 1.25 1.25v-2a.75.75 0 01.75.75h-2z" fill="#F43838" mask="url(#b)"/></svg>