<svg width="16" height="16" fill="none" xmlns="http://www.w3.org/2000/svg"><path d="M10.122 9.31h.904a.258.258 0 000-.517h-.904a.258.258 0 100 .516z" fill="#F43838" stroke="#F43838" stroke-width=".1"/><path d="M15.742 13.338h.007l.028-.003.024-.004.023-.007.026-.01.007-.003.013-.008.024-.015.018-.015.018-.018.017-.02.014-.02.011-.021.01-.023.008-.024.005-.024.003-.027.002-.016v-.007l-.004-.028-.004-.024-.006-.022-.01-.027-.003-.007-1.824-3.655h.314l.028-.003.024-.005.023-.007.026-.01.009-.004.011-.007.023-.015.019-.016.018-.018.016-.02.013-.02.012-.021.01-.023.007-.024.005-.024.003-.027.001-.014v-.01l-.003-.027-.005-.024-.007-.023-.01-.026-.004-.009-1.811-3.472h.292l.027-.004.026-.004.02-.006.03-.012.006-.003.01-.006.027-.018.014-.012.023-.022.011-.014.018-.027.008-.014.013-.032.005-.014.007-.033.002-.018.002-.019-.002-.014-.002-.017-.005-.034-.005-.014-.014-.035-.002-.005L10.84.21a.257.257 0 00-.26-.21.254.254 0 00-.259.21L7.78 5.084l-.002.006-.014.034-.005.014-.006.033-.001.019-.002.013.002.019.002.018.007.032.005.015.013.032.007.014.019.027.011.014.023.022.014.012.028.018.008.006.008.003.029.011.02.007.026.004L8 5.46l.01.001h.282L6.479 8.933l-.003.01-.01.025-.008.023-.004.024-.003.028-.001.01.001.013.003.027.005.024.008.024.01.023.011.022.014.02.016.02.018.017.018.016.024.015.01.007.01.004.026.01.023.007.024.005.027.003h.314l-1.824 3.655-.002.007-.01.026-.007.023-.004.024-.003.028v.023l.004.028.005.023.008.024.01.023.012.022.014.02.016.02.018.017.019.015.023.015.013.008.007.003.027.01.023.007.023.004.028.003h4.904v2.146H2.072v-3.145h1.242a.258.258 0 000-.517H.258a.258.258 0 000 .517h1.298v3.145H.258a.258.258 0 100 .516h16.484a.258.258 0 000-.516h-5.91v-2.146h4.91zM8.249 9.31a.258.258 0 000-.516H7.134l1.74-3.333h.558a.258.258 0 000-.516h-.998L10.581.829l2.146 4.116h-.998a.258.258 0 100 .516h.559l1.74 3.334h-1.117a.258.258 0 100 .516h.66l1.752 3.512H5.837L7.589 9.31h.66z" fill="#F43838" stroke="#F43838" stroke-width=".2"/></svg>