<svg width="25" height="24" fill="none" xmlns="http://www.w3.org/2000/svg"><g clip-path="url(#clip0)"><path fill-rule="evenodd" clip-rule="evenodd" d="M12.029 13C10.076 13 .014 4.891.014 4.891V4c0-1.104.896-2 2.002-2h20.026c1.107 0 2.003.896 2.003 2l-.016 1s-9.953 8-12 8zm0 2.75c2.14 0 12-7.75 12-7.75l.016 12c0 1.104-.896 2-2.003 2H2.016a2.002 2.002 0 01-2.002-2L.03 8c-.001 0 10.046 7.75 11.999 7.75z" fill="#F43838"/></g><defs><clipPath id="clip0"><path fill="#fff" transform="translate(.045)" d="M0 0h24v24H0z"/></clipPath></defs></svg>