<svg viewBox="0 0 16 16" fill="none" xmlns="http://www.w3.org/2000/svg"><path d="M14.667 5.333V5c0-1.187-.714-2.292-2.01-3.11C11.486 1.15 9.962.723 8.332.672V0h-.666v.672c-1.63.051-3.154.48-4.323 1.218-1.297.819-2.01 1.923-2.01 3.11v.333h6.333v3.334H1.333V11h1v5H3v-2.862L5.138 11h2.529v5h.666v-5h2.529L13 13.138V16h.667v-5h1V8.667H8.333V5.333h6.334zM3 12.195V11h1.195L3 12.195zm10 0L11.805 11H13v1.195zm1-1.862H2v-1h12v1zm-6-9c.428 0 .865.363 1.198.994.333.63.532 1.451.572 2.34H6.23c.04-.889.24-1.71.572-2.34.333-.631.77-.994 1.198-.994zm5.975 3.334h-3.537c-.056-1.353-.447-2.514-1.03-3.232 1.089.161 2.086.51 2.892 1.018.967.611 1.551 1.387 1.675 2.214zM3.7 2.453c.806-.509 1.803-.857 2.893-1.018-.584.718-.975 1.88-1.03 3.232H2.024c.124-.827.708-1.603 1.675-2.214z" fill="#F43838"/></svg>