<svg viewBox="0 0 16 16" fill="none" xmlns="http://www.w3.org/2000/svg">
<path d="M14.6667 5.33333V5C14.6667 3.8131 13.9527 2.7085 12.6564 1.88973C11.487 1.1512 9.96261 0.7234 8.33337 0.671967V0H7.66671V0.671967C6.03744 0.7234 4.51307 1.1512 3.34371 1.88977C2.04731 2.7085 1.33337 3.8131 1.33337 5V5.33333H7.66671V8.66667H1.33337V11H2.33337V16H3.00004V13.1381L5.13814 11H7.66671V16H8.33337V11H10.8619L13 13.1381V16H13.6667V11H14.6667V8.66667H8.33337V5.33333H14.6667ZM3.00004 12.1953V11H4.19527L3.00004 12.1953ZM13 12.1953L11.8048 11H13V12.1953ZM14 10.3333H2.00004V9.33333H14V10.3333ZM8.00004 1.33333C8.42804 1.33333 8.86467 1.69557 9.19801 2.32713C9.53064 2.95737 9.72987 3.77837 9.76991 4.66667H6.23017C6.27021 3.77837 6.46944 2.95737 6.80207 2.32713C7.13541 1.69557 7.57204 1.33333 8.00004 1.33333ZM13.9751 4.66667H10.4376C10.3821 3.31437 9.99107 2.15307 9.40731 1.43547C10.4966 1.59637 11.4939 1.94407 12.3003 2.4534C13.2674 3.06413 13.8511 3.84007 13.9751 4.66667ZM3.69967 2.4534C4.50611 1.94407 5.50347 1.59637 6.59274 1.43547C6.00897 2.15307 5.61791 3.31437 5.56241 4.66667H2.02494C2.14901 3.84007 2.73267 3.06413 3.69967 2.4534Z" fill="#F43838"/>
</svg>
